<?xml version="1.0" standalone="no"?>
<!DOCTYPE svg PUBLIC "-//W3C//DTD SVG 20010904//EN"
 "http://www.w3.org/TR/2001/REC-SVG-20010904/DTD/svg10.dtd">
<svg version="1.0" xmlns="http://www.w3.org/2000/svg"
 width="200.000000pt" height="200.000000pt" viewBox="0 0 200.000000 200.000000"
 preserveAspectRatio="xMidYMid meet">
<metadata>
Created by potrace 1.10, written by Peter Selinger 2001-2011
</metadata>
<g transform="translate(0.000000,200.000000) scale(0.100000,-0.100000)"
fill="#000000" stroke="none">
<path d="M925 1366 c-39 -22 -71 -45 -72 -51 0 -5 12 -17 26 -26 25 -15 29
-14 74 10 l47 26 48 -26 c44 -24 48 -25 73 -10 14 9 28 19 30 23 3 6 -152 102
-155 97 -1 -1 -33 -20 -71 -43z"/>
<path d="M820 1196 l0 -93 63 -38 c34 -21 72 -45 85 -53 22 -14 22 -14 22 29
0 42 -2 45 -50 72 l-50 28 0 54 c0 48 -3 56 -29 74 -16 12 -32 21 -35 21 -3 0
-6 -42 -6 -94z"/>
<path d="M953 1270 c-28 -17 -33 -25 -33 -60 l0 -39 35 20 c30 18 35 26 35 60
0 21 -1 39 -2 39 -2 0 -18 -9 -35 -20z"/>
<path d="M1010 1252 c0 -35 4 -43 36 -61 l35 -21 -3 42 c-3 35 -8 45 -35 61
l-33 19 0 -40z"/>
<path d="M1138 1269 c-25 -18 -28 -27 -28 -74 l0 -54 -50 -28 c-48 -27 -50
-30 -50 -72 0 -43 0 -43 23 -29 12 8 50 32 85 53 l62 38 0 93 c0 52 -3 94 -7
94 -5 0 -20 -10 -35 -21z"/>
<path d="M968 1172 c-16 -10 -28 -19 -28 -22 0 -3 14 -14 30 -23 29 -17 31
-17 60 0 17 9 30 20 30 24 0 5 -38 27 -60 35 -3 1 -17 -5 -32 -14z"/>
<path d="M403 980 c-27 -11 -38 -43 -23 -70 11 -21 52 -36 69 -25 19 11 12 25
-13 25 -13 0 -26 6 -29 14 -7 17 18 41 32 32 5 -4 13 -1 17 5 3 6 0 15 -7 20
-17 10 -18 10 -46 -1z"/>
<path d="M480 935 c0 -42 3 -55 15 -55 10 0 15 10 15 31 0 19 4 28 11 23 6 -3
8 -17 5 -30 -5 -18 -2 -24 9 -24 13 0 15 9 13 38 -2 29 -7 38 -25 40 -14 2
-20 8 -16 18 3 8 -1 14 -11 14 -13 0 -16 -11 -16 -55z"/>
<path d="M768 968 c-3 -7 -18 -11 -36 -10 -40 3 -55 -24 -26 -45 13 -10 14
-13 4 -11 -8 1 -16 -2 -17 -7 -2 -6 9 -10 24 -10 36 0 44 32 12 44 -23 8 -23
8 4 13 27 5 37 -6 37 -43 0 -11 7 -19 16 -19 12 0 15 6 11 22 -4 12 -2 27 4
34 5 6 7 19 3 28 -7 19 -31 21 -36 4z"/>
<path d="M1121 943 c-8 -21 -16 -44 -18 -50 -3 -7 2 -13 11 -13 9 0 16 5 16
10 0 6 9 10 20 10 11 0 20 -4 20 -10 0 -5 7 -10 16 -10 9 0 13 6 10 13 -2 6
-10 29 -17 50 -7 23 -18 37 -29 37 -9 0 -21 -15 -29 -37z"/>
<path d="M1303 965 c-8 -9 -9 -16 -3 -20 6 -3 10 -19 10 -36 0 -20 5 -29 16
-29 12 0 15 6 11 22 -4 12 -2 27 4 34 11 14 2 44 -15 44 -6 -1 -17 -7 -23 -15z"/>
<path d="M570 919 c0 -28 4 -39 15 -39 9 0 15 9 15 24 0 13 7 26 15 30 25 9
17 23 -15 24 -28 1 -30 -1 -30 -39z"/>
<path d="M640 920 c0 -29 4 -40 15 -40 11 0 15 11 15 40 0 29 -4 40 -15 40
-11 0 -15 -11 -15 -40z"/>
<path d="M820 920 c0 -29 4 -40 15 -40 11 0 15 11 15 40 0 29 -4 40 -15 40
-11 0 -15 -11 -15 -40z"/>
<path d="M874 945 c-3 -8 -4 -24 -2 -37 2 -19 10 -23 41 -25 37 -2 37 -2 37
36 0 38 -1 39 -36 39 -20 0 -38 -6 -40 -13z"/>
<path d="M970 921 c0 -29 4 -41 14 -41 9 0 14 9 13 24 -1 14 3 25 8 25 6 0 9
-11 8 -25 -1 -15 3 -24 13 -24 11 0 14 9 12 38 -3 34 -6 37 -35 40 -32 3 -33
2 -33 -37z"/>
<path d="M1210 920 c0 -29 4 -40 15 -40 10 0 15 10 15 31 0 19 4 28 11 23 6
-3 8 -17 5 -30 -5 -19 -2 -24 14 -24 17 0 19 5 14 28 -10 49 -13 52 -44 52
-28 0 -30 -2 -30 -40z"/>
<path d="M1362 923 c3 -36 5 -38 38 -40 35 -2 35 -1 35 38 0 25 -4 39 -12 39
-7 0 -13 -11 -13 -24 0 -14 -4 -28 -10 -31 -6 -4 -10 7 -10 24 0 21 -5 31 -16
31 -12 0 -14 -9 -12 -37z"/>
<path d="M1455 920 c-1 -32 3 -40 17 -40 14 0 17 5 12 24 -3 13 -1 27 5 30 7
5 11 -4 11 -23 0 -21 5 -31 16 -31 12 0 14 9 12 38 -3 34 -5 37 -38 40 -35 3
-35 2 -35 -38z"/>
<path d="M1554 946 c-3 -8 -4 -25 -2 -38 2 -19 10 -23 41 -25 37 -2 37 -2 37
37 0 39 -1 40 -35 40 -22 0 -38 -6 -41 -14z"/>
</g>
</svg>
